<?xml version="1.0" encoding="utf-8"?>
<!-- Generator: Adobe Illustrator 21.0.0, SVG Export Plug-In . SVG Version: 6.00 Build 0)  -->
<svg version="1.1" id="Calque_1" xmlns="http://www.w3.org/2000/svg" xmlns:xlink="http://www.w3.org/1999/xlink" x="0px" y="0px"
	 viewBox="0 0 64.2 9" style="enable-background:new 0 0 64.2 9;" xml:space="preserve">
<style type="text/css">
	.st0{fill:#3290B5;}
</style>
<g>
	<path d="M4.8,1.4C4.4,1.1,3.9,1,3.3,1C3.1,1,2.8,1,2.6,1C2.4,1.1,2.2,1.2,2,1.3C1.8,1.4,1.7,1.5,1.6,1.7C1.5,1.9,1.4,2.1,1.4,2.4
		c0,0.3,0.1,0.5,0.2,0.6C1.8,3.2,2,3.4,2.3,3.5c0.3,0.1,0.6,0.2,0.9,0.3s0.7,0.1,1,0.2c0.3,0.1,0.7,0.2,1,0.3S5.8,4.5,6,4.7
		c0.3,0.2,0.5,0.4,0.6,0.7C6.8,5.6,6.9,6,6.9,6.4c0,0.5-0.1,0.8-0.3,1.2C6.4,7.9,6.1,8.2,5.8,8.4C5.5,8.6,5.1,8.7,4.7,8.8
		C4.3,8.9,3.9,9,3.5,9C3.1,9,2.6,8.9,2.2,8.8C1.8,8.7,1.4,8.5,1.1,8.2C0.7,8,0.5,7.7,0.3,7.3C0.1,6.9,0,6.5,0,6h1.1
		c0,0.4,0.1,0.7,0.2,0.9c0.1,0.3,0.3,0.5,0.6,0.6s0.5,0.3,0.8,0.4C2.9,8,3.3,8,3.6,8c0.3,0,0.5,0,0.8-0.1c0.3,0,0.5-0.1,0.7-0.2
		c0.2-0.1,0.4-0.3,0.5-0.5C5.7,7,5.7,6.8,5.7,6.5c0-0.3-0.1-0.5-0.2-0.7C5.4,5.6,5.1,5.4,4.9,5.3C4.6,5.2,4.3,5.1,4,5
		C3.7,4.9,3.3,4.9,3,4.8C2.7,4.7,2.3,4.6,2,4.5C1.7,4.4,1.4,4.3,1.1,4.1S0.7,3.7,0.5,3.5c-0.2-0.3-0.2-0.6-0.2-1
		c0-0.4,0.1-0.8,0.3-1.1c0.2-0.3,0.4-0.6,0.7-0.8s0.6-0.4,1-0.5S3,0,3.4,0c0.4,0,0.8,0.1,1.2,0.2c0.4,0.1,0.7,0.3,1,0.5
		c0.3,0.2,0.5,0.5,0.7,0.8c0.2,0.3,0.3,0.7,0.3,1.2H5.4C5.4,2.1,5.2,1.6,4.8,1.4z"/>
	<path d="M8,2.8c0.2-0.5,0.4-1,0.8-1.4c0.3-0.4,0.8-0.7,1.3-1C10.6,0.1,11.2,0,11.9,0c0.7,0,1.3,0.1,1.8,0.4c0.5,0.2,0.9,0.6,1.3,1
		c0.3,0.4,0.6,0.9,0.8,1.4C15.9,3.3,16,3.9,16,4.5c0,0.6-0.1,1.1-0.3,1.7c-0.2,0.5-0.4,1-0.8,1.4c-0.3,0.4-0.8,0.7-1.3,1
		C13.2,8.8,12.6,9,11.9,9c-0.7,0-1.3-0.1-1.8-0.4C9.6,8.4,9.2,8,8.8,7.6C8.5,7.2,8.2,6.7,8,6.2S7.8,5.1,7.8,4.5
		C7.8,3.9,7.9,3.3,8,2.8z M9.1,5.8c0.1,0.4,0.3,0.8,0.5,1.1s0.5,0.6,0.9,0.8S11.4,8,11.9,8s1-0.1,1.3-0.3s0.7-0.5,0.9-0.8
		c0.2-0.3,0.4-0.7,0.5-1.1c0.1-0.4,0.2-0.8,0.2-1.3c0-0.4-0.1-0.9-0.2-1.3c-0.1-0.4-0.3-0.8-0.5-1.1c-0.2-0.3-0.5-0.6-0.9-0.8
		S12.4,1,11.9,1s-1,0.1-1.3,0.3S9.9,1.7,9.6,2.1C9.4,2.4,9.2,2.8,9.1,3.2C9,3.6,8.9,4.1,8.9,4.5C8.9,4.9,9,5.3,9.1,5.8z"/>
	<path d="M23,0.2v1h-4.5v2.7h3.9v1h-3.9v3.9h-1.1V0.2H23z"/>
	<path d="M23.4,1.2v-1h6.9v1h-2.9v7.6h-1.1V1.2H23.4z"/>
	<path class="st0" d="M33.6,1.2v-1h6.9v1h-2.9v7.6h-1.1V1.2H33.6z"/>
	<path class="st0" d="M47.3,0.2v1h-4.8v2.7H47v1h-4.5v3h4.8v1h-6V0.2H47.3z"/>
	<path class="st0" d="M53.9,1.4c-0.4-0.3-1-0.5-1.6-0.5c-0.5,0-1,0.1-1.3,0.3c-0.4,0.2-0.7,0.4-0.9,0.8c-0.2,0.3-0.4,0.7-0.5,1.1
		c-0.1,0.4-0.2,0.8-0.2,1.3c0,0.5,0.1,1,0.2,1.4c0.1,0.4,0.3,0.8,0.5,1.1c0.2,0.3,0.5,0.6,0.9,0.8S51.8,8,52.4,8
		c0.4,0,0.7-0.1,1-0.2c0.3-0.1,0.5-0.3,0.8-0.5c0.2-0.2,0.4-0.5,0.5-0.8c0.1-0.3,0.2-0.6,0.2-1H56c-0.1,1.1-0.5,1.9-1.1,2.5
		S53.4,9,52.3,9c-0.7,0-1.2-0.1-1.7-0.3s-0.9-0.5-1.2-0.9s-0.6-0.9-0.7-1.4c-0.2-0.5-0.2-1.1-0.2-1.8c0-0.6,0.1-1.2,0.3-1.8
		c0.2-0.5,0.4-1,0.8-1.4c0.3-0.4,0.8-0.7,1.3-1C51.1,0.1,51.7,0,52.4,0c0.4,0,0.9,0.1,1.3,0.2c0.4,0.1,0.8,0.3,1.1,0.5
		s0.6,0.5,0.8,0.9c0.2,0.3,0.3,0.8,0.4,1.2h-1.1C54.6,2.2,54.3,1.7,53.9,1.4z"/>
	<path class="st0" d="M58.5,0.2v3.7H63V0.2h1.1v8.6H63V4.8h-4.5v3.9h-1.1V0.2H58.5z"/>
</g>
</svg>
